<svg xmlns="http://www.w3.org/2000/svg" xml:space="preserve" width="655.359" height="655.359" style="shape-rendering:geometricPrecision;text-rendering:geometricPrecision;image-rendering:optimizeQuality;fill-rule:evenodd;clip-rule:evenodd" viewBox="0 0 6.827 6.827" id="laptop">
    <g id="Layer_x0020_1">
      <path d="M3.814 2.89a.782.782 0 0 0 .387-.54c.1-.027.171-.116.207-.22a.487.487 0 0 0 .025-.133.374.374 0 0 0-.016-.13.206.206 0 0 0-.112-.136c0-.182-.047-.65-.557-.827a.08.08 0 0 0-.006-.002c-.05-.017-.486-.151-.55.117a.442.442 0 0 0-.428.256 1.096 1.096 0 0 0-.089.467.208.208 0 0 0-.116.11.303.303 0 0 0-.027.137.433.433 0 0 0 .028.14.366.366 0 0 0 .202.218c.049.255.19.434.366.534a.714.714 0 0 0 .686.008z" style="fill:#c2e4f8"></path>
      <path d="M1.279 3.613h4.27a.08.08 0 0 1 .078.1l-.352 1.862-.078-.014.078.015a.08.08 0 0 1-.08.065H1.63a.08.08 0 0 1-.08-.071L1.2 3.708a.08.08 0 0 1 .08-.095zm4.174.16h-4.08l.323 1.708h3.435l.322-1.708zM1.642 5.813a.08.08 0 0 0 0 .16h3.543a.08.08 0 0 0 0-.16H1.642z" style="fill:#0a93e2;fill-rule:nonzero"></path>
      <g id="_240751248">
        <path id="_240751968" d="M3.25 1.181c-.185-.017-.288.055-.343.166-.063.125-.074.3-.073.458a.08.08 0 0 1-.078.081h-.002c-.026.003-.042.016-.05.034a.146.146 0 0 0-.012.065c0 .028.007.059.018.088.025.066.073.123.133.131l-.01.08.01-.08a.08.08 0 0 1 .07.074.61.61 0 0 0 .293.464.554.554 0 0 0 .533.007c.152-.082.276-.242.316-.485l.079.013-.08-.013a.08.08 0 0 1 .087-.067c.053 0 .094-.055.115-.118.01-.03.016-.06.017-.089a.218.218 0 0 0-.008-.075c-.007-.023-.02-.04-.04-.039a.08.08 0 0 1-.083-.092c.005-.05.045-.558-.446-.73h-.004c-.041-.014-.353-.112-.348.046a.08.08 0 0 1-.093.081zm-.486.094a.442.442 0 0 1 .428-.256c.064-.268.5-.134.55-.117a.08.08 0 0 1 .006.002l-.026.075.026-.075c.51.177.558.645.557.827a.206.206 0 0 1 .112.136c.013.04.018.084.016.13a.487.487 0 0 1-.025.133c-.036.104-.106.193-.207.22a.782.782 0 0 1-.387.54.709.709 0 0 1-.686-.01.756.756 0 0 1-.366-.533.366.366 0 0 1-.202-.218.433.433 0 0 1-.028-.14.303.303 0 0 1 .027-.137.208.208 0 0 1 .116-.11c.002-.16.021-.332.09-.467z" style="fill:#0a93e2;fill-rule:nonzero"></path>
        <path id="_240751872" d="M3.955 3.05a1.27 1.27 0 0 1 .758.604.08.08 0 0 1-.07.12h-2.46a.08.08 0 0 1-.066-.126 1.285 1.285 0 0 1 .873-.626.08.08 0 0 1 .077.029.554.554 0 0 0 .396.184.548.548 0 0 0 .41-.165.08.08 0 0 1 .082-.02zm.337.351a1.11 1.11 0 0 0-.342-.185l-.002.002a.711.711 0 0 1-.968-.027l-.003-.003a1.107 1.107 0 0 0-.647.425h2.167a1.128 1.128 0 0 0-.205-.212z" style="fill:#0a93e2;fill-rule:nonzero"></path>
      </g>
      <path d="M4.292 3.401a1.11 1.11 0 0 0-.342-.185l-.002.002a.711.711 0 0 1-.968-.027l-.003-.003a1.107 1.107 0 0 0-.647.425h2.167a1.128 1.128 0 0 0-.205-.212z" style="fill:#f4f4f4"></path>
      <path d="M4.642 3.773H1.373l.323 1.708h3.435l.322-1.708h-.811z" style="fill:#c2e4f8"></path>
    </g>
    <path d="M0 0h6.827v6.827H0z" style="fill:none"></path>
  </svg>